<svg id="visual" viewBox="0 0 960 540" width="960" height="540" xmlns="http://www.w3.org/2000/svg" xmlns:xlink="http://www.w3.org/1999/xlink" version="1.1"><g stroke-width="1" stroke-linejoin="bevel"><path d="M518.3 255L620 236L553.3 190Z" fill="#3d5962" stroke="#3d5962"></path><path d="M620 236L631 188L553.3 190Z" fill="#8bc4c0" stroke="#8bc4c0"></path><path d="M553.3 190L433.7 215L518.3 255Z" fill="#081117" stroke="#081117"></path><path d="M455.7 335L553.3 381L518.3 255Z" fill="#69989b" stroke="#69989b"></path><path d="M518.3 255L553.3 381L620 236Z" fill="#598288" stroke="#598288"></path><path d="M399.7 281L455.7 335L518.3 255Z" fill="#081117" stroke="#081117"></path><path d="M553.3 381L664 374L620 236Z" fill="#3d5962" stroke="#3d5962"></path><path d="M620 236L732.7 259L631 188Z" fill="#69989b" stroke="#69989b"></path><path d="M717.7 321L732.7 259L620 236Z" fill="#24333b" stroke="#24333b"></path><path d="M664 374L717.7 321L620 236Z" fill="#9edbd2" stroke="#9edbd2"></path><path d="M433.7 215L399.7 281L518.3 255Z" fill="#4b6d75" stroke="#4b6d75"></path><path d="M751.7 164L604 66L631 188Z" fill="#4b6d75" stroke="#4b6d75"></path><path d="M631 188L604 66L553.3 190Z" fill="#30464e" stroke="#30464e"></path><path d="M553.3 190L390.7 118L433.7 215Z" fill="#3d5962" stroke="#3d5962"></path><path d="M604 66L547.3 52L553.3 190Z" fill="#8bc4c0" stroke="#8bc4c0"></path><path d="M732.7 259L751.7 164L631 188Z" fill="#172229" stroke="#172229"></path><path d="M553.3 381L660 429L664 374Z" fill="#4b6d75" stroke="#4b6d75"></path><path d="M664 374L763.7 482L717.7 321Z" fill="#24333b" stroke="#24333b"></path><path d="M547.3 52L390.7 118L553.3 190Z" fill="#4b6d75" stroke="#4b6d75"></path><path d="M291 195L329 302L399.7 281Z" fill="#172229" stroke="#172229"></path><path d="M604 66L552.3 0L547.3 52Z" fill="#69989b" stroke="#69989b"></path><path d="M547.3 52L399.7 0L390.7 118Z" fill="#69989b" stroke="#69989b"></path><path d="M664 0L552.3 0L604 66Z" fill="#3d5962" stroke="#3d5962"></path><path d="M291 195L399.7 281L433.7 215Z" fill="#081117" stroke="#081117"></path><path d="M399.7 281L332 333L455.7 335Z" fill="#9edbd2" stroke="#9edbd2"></path><path d="M424.7 453L524.3 486L553.3 381Z" fill="#3d5962" stroke="#3d5962"></path><path d="M553.3 381L524.3 486L660 429Z" fill="#30464e" stroke="#30464e"></path><path d="M424.7 453L553.3 381L455.7 335Z" fill="#4b6d75" stroke="#4b6d75"></path><path d="M329 302L332 333L399.7 281Z" fill="#79aeae" stroke="#79aeae"></path><path d="M332 333L424.7 453L455.7 335Z" fill="#081117" stroke="#081117"></path><path d="M771.7 57L664 0L604 66Z" fill="#4b6d75" stroke="#4b6d75"></path><path d="M850.3 236L831.3 193L732.7 259Z" fill="#3d5962" stroke="#3d5962"></path><path d="M732.7 259L831.3 193L751.7 164Z" fill="#081117" stroke="#081117"></path><path d="M751.7 164L771.7 57L604 66Z" fill="#79aeae" stroke="#79aeae"></path><path d="M850.3 236L732.7 259L870.3 341Z" fill="#4b6d75" stroke="#4b6d75"></path><path d="M864.3 116L771.7 57L751.7 164Z" fill="#69989b" stroke="#69989b"></path><path d="M390.7 118L291 195L433.7 215Z" fill="#24333b" stroke="#24333b"></path><path d="M200.3 359L315 438L332 333Z" fill="#69989b" stroke="#69989b"></path><path d="M870.3 341L732.7 259L717.7 321Z" fill="#8bc4c0" stroke="#8bc4c0"></path><path d="M831.3 193L864.3 116L751.7 164Z" fill="#4b6d75" stroke="#4b6d75"></path><path d="M771.7 57L718.7 0L664 0Z" fill="#8bc4c0" stroke="#8bc4c0"></path><path d="M552.3 0L399.7 0L547.3 52Z" fill="#24333b" stroke="#24333b"></path><path d="M390.7 118L293 118L291 195Z" fill="#8bc4c0" stroke="#8bc4c0"></path><path d="M321 0L293 118L390.7 118Z" fill="#79aeae" stroke="#79aeae"></path><path d="M461.7 540L523.3 540L524.3 486Z" fill="#172229" stroke="#172229"></path><path d="M524.3 486L627 540L660 429Z" fill="#79aeae" stroke="#79aeae"></path><path d="M523.3 540L627 540L524.3 486Z" fill="#24333b" stroke="#24333b"></path><path d="M660 429L763.7 482L664 374Z" fill="#598288" stroke="#598288"></path><path d="M732.7 540L763.7 482L660 429Z" fill="#30464e" stroke="#30464e"></path><path d="M424.7 453L461.7 540L524.3 486Z" fill="#30464e" stroke="#30464e"></path><path d="M337 540L461.7 540L424.7 453Z" fill="#4b6d75" stroke="#4b6d75"></path><path d="M763.7 482L870.3 341L717.7 321Z" fill="#30464e" stroke="#30464e"></path><path d="M960 197L864.3 116L831.3 193Z" fill="#3d5962" stroke="#3d5962"></path><path d="M771.7 57L823.3 0L718.7 0Z" fill="#4b6d75" stroke="#4b6d75"></path><path d="M960 197L831.3 193L850.3 236Z" fill="#172229" stroke="#172229"></path><path d="M200.3 359L332 333L329 302Z" fill="#081117" stroke="#081117"></path><path d="M332 333L315 438L424.7 453Z" fill="#30464e" stroke="#30464e"></path><path d="M763.7 482L872.3 483L870.3 341Z" fill="#598288" stroke="#598288"></path><path d="M627 540L732.7 540L660 429Z" fill="#69989b" stroke="#69989b"></path><path d="M399.7 0L321 0L390.7 118Z" fill="#3d5962" stroke="#3d5962"></path><path d="M864.3 116L823.3 0L771.7 57Z" fill="#24333b" stroke="#24333b"></path><path d="M293 118L208.3 182L291 195Z" fill="#081117" stroke="#081117"></path><path d="M175.3 273L200.3 359L329 302Z" fill="#081117" stroke="#081117"></path><path d="M178.3 89L208.3 182L293 118Z" fill="#8bc4c0" stroke="#8bc4c0"></path><path d="M315 438L337 540L424.7 453Z" fill="#79aeae" stroke="#79aeae"></path><path d="M248.3 540L337 540L315 438Z" fill="#24333b" stroke="#24333b"></path><path d="M175.3 273L329 302L291 195Z" fill="#69989b" stroke="#69989b"></path><path d="M838.3 540L872.3 483L763.7 482Z" fill="#9edbd2" stroke="#9edbd2"></path><path d="M960 358L960 278L870.3 341Z" fill="#24333b" stroke="#24333b"></path><path d="M870.3 341L960 278L850.3 236Z" fill="#4b6d75" stroke="#4b6d75"></path><path d="M864.3 116L960 0L823.3 0Z" fill="#24333b" stroke="#24333b"></path><path d="M208.3 182L175.3 273L291 195Z" fill="#4b6d75" stroke="#4b6d75"></path><path d="M960 278L960 197L850.3 236Z" fill="#3d5962" stroke="#3d5962"></path><path d="M732.7 540L838.3 540L763.7 482Z" fill="#30464e" stroke="#30464e"></path><path d="M960 457L870.3 341L872.3 483Z" fill="#8bc4c0" stroke="#8bc4c0"></path><path d="M960 457L960 358L870.3 341Z" fill="#081117" stroke="#081117"></path><path d="M960 197L960 121L864.3 116Z" fill="#79aeae" stroke="#79aeae"></path><path d="M222.3 0L178.3 89L293 118Z" fill="#3d5962" stroke="#3d5962"></path><path d="M208.3 182L131.7 145L175.3 273Z" fill="#4b6d75" stroke="#4b6d75"></path><path d="M321 0L222.3 0L293 118Z" fill="#9edbd2" stroke="#9edbd2"></path><path d="M91.7 439L211.3 471L200.3 359Z" fill="#598288" stroke="#598288"></path><path d="M200.3 359L211.3 471L315 438Z" fill="#69989b" stroke="#69989b"></path><path d="M211.3 471L248.3 540L315 438Z" fill="#30464e" stroke="#30464e"></path><path d="M125.7 123L131.7 145L178.3 89Z" fill="#30464e" stroke="#30464e"></path><path d="M178.3 89L131.7 145L208.3 182Z" fill="#172229" stroke="#172229"></path><path d="M175.3 273L76.7 327L200.3 359Z" fill="#9edbd2" stroke="#9edbd2"></path><path d="M960 540L960 457L872.3 483Z" fill="#30464e" stroke="#30464e"></path><path d="M69.7 0L125.7 123L178.3 89Z" fill="#24333b" stroke="#24333b"></path><path d="M131.7 145L81.7 273L175.3 273Z" fill="#69989b" stroke="#69989b"></path><path d="M960 121L960 0L864.3 116Z" fill="#081117" stroke="#081117"></path><path d="M0 160L81.7 273L131.7 145Z" fill="#69989b" stroke="#69989b"></path><path d="M211.3 471L113.7 540L248.3 540Z" fill="#081117" stroke="#081117"></path><path d="M838.3 540L960 540L872.3 483Z" fill="#081117" stroke="#081117"></path><path d="M81.7 273L76.7 327L175.3 273Z" fill="#79aeae" stroke="#79aeae"></path><path d="M76.7 327L91.7 439L200.3 359Z" fill="#30464e" stroke="#30464e"></path><path d="M91.7 439L113.7 540L211.3 471Z" fill="#598288" stroke="#598288"></path><path d="M222.3 0L69.7 0L178.3 89Z" fill="#081117" stroke="#081117"></path><path d="M0 160L0 308L81.7 273Z" fill="#24333b" stroke="#24333b"></path><path d="M81.7 273L0 308L76.7 327Z" fill="#69989b" stroke="#69989b"></path><path d="M76.7 327L0 333L91.7 439Z" fill="#8bc4c0" stroke="#8bc4c0"></path><path d="M91.7 439L0 540L113.7 540Z" fill="#24333b" stroke="#24333b"></path><path d="M0 160L131.7 145L125.7 123Z" fill="#30464e" stroke="#30464e"></path><path d="M0 89L0 160L125.7 123Z" fill="#69989b" stroke="#69989b"></path><path d="M0 308L0 333L76.7 327Z" fill="#598288" stroke="#598288"></path><path d="M69.7 0L0 89L125.7 123Z" fill="#24333b" stroke="#24333b"></path><path d="M0 333L0 453L91.7 439Z" fill="#8bc4c0" stroke="#8bc4c0"></path><path d="M69.7 0L0 0L0 89Z" fill="#598288" stroke="#598288"></path><path d="M0 453L0 540L91.7 439Z" fill="#79aeae" stroke="#79aeae"></path></g></svg>