<svg id="visual" viewBox="0 0 960 540" width="960" height="540" xmlns="http://www.w3.org/2000/svg" xmlns:xlink="http://www.w3.org/1999/xlink" version="1.1"><g stroke-width="1" stroke-linejoin="bevel"><path d="M447 262L410 293L488 341Z" fill="#2e3937" stroke="#2e3937"></path><path d="M410 293L400 395L488 341Z" fill="#062621" stroke="#062621"></path><path d="M560 387L566 307L488 341Z" fill="#152c28" stroke="#152c28"></path><path d="M488 341L566 307L447 262Z" fill="#3a403e" stroke="#3a403e"></path><path d="M566 307L478 195L447 262Z" fill="#404342" stroke="#404342"></path><path d="M395 167L326 279L410 293Z" fill="#3a403e" stroke="#3a403e"></path><path d="M395 167L410 293L447 262Z" fill="#283633" stroke="#283633"></path><path d="M410 293L326 279L400 395Z" fill="#062621" stroke="#062621"></path><path d="M442 441L560 387L488 341Z" fill="#22332f" stroke="#22332f"></path><path d="M400 395L442 441L488 341Z" fill="#464646" stroke="#464646"></path><path d="M478 195L395 167L447 262Z" fill="#062621" stroke="#062621"></path><path d="M442 441L576 410L560 387Z" fill="#152c28" stroke="#152c28"></path><path d="M560 387L696 399L566 307Z" fill="#062621" stroke="#062621"></path><path d="M326 279L321 399L400 395Z" fill="#1c302c" stroke="#1c302c"></path><path d="M400 395L346 480L442 441Z" fill="#22332f" stroke="#22332f"></path><path d="M707 275L592 201L566 307Z" fill="#2e3937" stroke="#2e3937"></path><path d="M566 307L592 201L478 195Z" fill="#404342" stroke="#404342"></path><path d="M478 195L453 87L395 167Z" fill="#062621" stroke="#062621"></path><path d="M395 167L284 209L326 279Z" fill="#1c302c" stroke="#1c302c"></path><path d="M217 345L276 441L321 399Z" fill="#464646" stroke="#464646"></path><path d="M321 399L346 480L400 395Z" fill="#464646" stroke="#464646"></path><path d="M442 441L537 540L576 410Z" fill="#3a403e" stroke="#3a403e"></path><path d="M599 116L453 87L478 195Z" fill="#22332f" stroke="#22332f"></path><path d="M395 167L276 87L284 209Z" fill="#062621" stroke="#062621"></path><path d="M217 345L321 399L326 279Z" fill="#22332f" stroke="#22332f"></path><path d="M321 399L276 441L346 480Z" fill="#464646" stroke="#464646"></path><path d="M453 87L384 96L395 167Z" fill="#0e2924" stroke="#0e2924"></path><path d="M346 480L466 540L442 441Z" fill="#1c302c" stroke="#1c302c"></path><path d="M201 249L217 345L326 279Z" fill="#343c3a" stroke="#343c3a"></path><path d="M687 140L599 116L592 201Z" fill="#1c302c" stroke="#1c302c"></path><path d="M592 201L599 116L478 195Z" fill="#283633" stroke="#283633"></path><path d="M537 540L641 466L576 410Z" fill="#343c3a" stroke="#343c3a"></path><path d="M696 399L707 275L566 307Z" fill="#0e2924" stroke="#0e2924"></path><path d="M466 540L537 540L442 441Z" fill="#404342" stroke="#404342"></path><path d="M249 540L353 540L346 480Z" fill="#3a403e" stroke="#3a403e"></path><path d="M346 480L353 540L466 540Z" fill="#343c3a" stroke="#343c3a"></path><path d="M696 399L560 387L576 410Z" fill="#062621" stroke="#062621"></path><path d="M641 466L696 399L576 410Z" fill="#152c28" stroke="#152c28"></path><path d="M170 219L201 249L284 209Z" fill="#0e2924" stroke="#0e2924"></path><path d="M284 209L201 249L326 279Z" fill="#1c302c" stroke="#1c302c"></path><path d="M217 345L209 419L276 441Z" fill="#2e3937" stroke="#2e3937"></path><path d="M276 441L249 540L346 480Z" fill="#464646" stroke="#464646"></path><path d="M101 342L209 419L217 345Z" fill="#0e2924" stroke="#0e2924"></path><path d="M304 0L276 87L384 96Z" fill="#3a403e" stroke="#3a403e"></path><path d="M384 96L276 87L395 167Z" fill="#152c28" stroke="#152c28"></path><path d="M707 275L687 140L592 201Z" fill="#464646" stroke="#464646"></path><path d="M276 87L170 219L284 209Z" fill="#3a403e" stroke="#3a403e"></path><path d="M201 249L101 342L217 345Z" fill="#062621" stroke="#062621"></path><path d="M759 67L685 114L687 140Z" fill="#152c28" stroke="#152c28"></path><path d="M687 140L685 114L599 116Z" fill="#0e2924" stroke="#0e2924"></path><path d="M599 116L502 0L453 87Z" fill="#2e3937" stroke="#2e3937"></path><path d="M209 419L249 540L276 441Z" fill="#404342" stroke="#404342"></path><path d="M604 0L502 0L599 116Z" fill="#343c3a" stroke="#343c3a"></path><path d="M453 87L385 0L384 96Z" fill="#464646" stroke="#464646"></path><path d="M696 399L768 321L707 275Z" fill="#283633" stroke="#283633"></path><path d="M707 275L778 198L687 140Z" fill="#1c302c" stroke="#1c302c"></path><path d="M739 460L768 321L696 399Z" fill="#3a403e" stroke="#3a403e"></path><path d="M502 0L385 0L453 87Z" fill="#283633" stroke="#283633"></path><path d="M684 540L739 460L641 466Z" fill="#2e3937" stroke="#2e3937"></path><path d="M641 466L739 460L696 399Z" fill="#2e3937" stroke="#2e3937"></path><path d="M537 540L684 540L641 466Z" fill="#3a403e" stroke="#3a403e"></path><path d="M794 252L778 198L707 275Z" fill="#0e2924" stroke="#0e2924"></path><path d="M123 183L119 240L170 219Z" fill="#152c28" stroke="#152c28"></path><path d="M170 219L119 240L201 249Z" fill="#062621" stroke="#062621"></path><path d="M209 419L183 540L249 540Z" fill="#062621" stroke="#062621"></path><path d="M654 0L604 0L599 116Z" fill="#1c302c" stroke="#1c302c"></path><path d="M654 0L599 116L685 114Z" fill="#0e2924" stroke="#0e2924"></path><path d="M385 0L304 0L384 96Z" fill="#464646" stroke="#464646"></path><path d="M155 60L123 183L170 219Z" fill="#1c302c" stroke="#1c302c"></path><path d="M847 200L794 252L876 249Z" fill="#464646" stroke="#464646"></path><path d="M768 321L794 252L707 275Z" fill="#062621" stroke="#062621"></path><path d="M155 60L170 219L276 87Z" fill="#1c302c" stroke="#1c302c"></path><path d="M0 292L101 342L119 240Z" fill="#062621" stroke="#062621"></path><path d="M119 240L101 342L201 249Z" fill="#0e2924" stroke="#0e2924"></path><path d="M110 540L183 540L209 419Z" fill="#283633" stroke="#283633"></path><path d="M759 67L654 0L685 114Z" fill="#343c3a" stroke="#343c3a"></path><path d="M304 0L229 0L276 87Z" fill="#3a403e" stroke="#3a403e"></path><path d="M848 123L759 67L778 198Z" fill="#464646" stroke="#464646"></path><path d="M778 198L759 67L687 140Z" fill="#3a403e" stroke="#3a403e"></path><path d="M229 0L155 60L276 87Z" fill="#404342" stroke="#404342"></path><path d="M0 343L77 423L101 342Z" fill="#404342" stroke="#404342"></path><path d="M101 342L77 423L209 419Z" fill="#283633" stroke="#283633"></path><path d="M876 249L794 252L768 321Z" fill="#3a403e" stroke="#3a403e"></path><path d="M794 252L847 200L778 198Z" fill="#22332f" stroke="#22332f"></path><path d="M684 540L795 540L739 460Z" fill="#283633" stroke="#283633"></path><path d="M739 460L833 482L768 321Z" fill="#0e2924" stroke="#0e2924"></path><path d="M77 423L110 540L209 419Z" fill="#2e3937" stroke="#2e3937"></path><path d="M795 540L833 482L739 460Z" fill="#404342" stroke="#404342"></path><path d="M155 60L116 58L123 183Z" fill="#3a403e" stroke="#3a403e"></path><path d="M0 183L0 292L119 240Z" fill="#404342" stroke="#404342"></path><path d="M111 0L116 58L155 60Z" fill="#464646" stroke="#464646"></path><path d="M896 380L876 249L768 321Z" fill="#3a403e" stroke="#3a403e"></path><path d="M847 200L848 123L778 198Z" fill="#283633" stroke="#283633"></path><path d="M759 67L772 0L654 0Z" fill="#283633" stroke="#283633"></path><path d="M960 211L848 123L847 200Z" fill="#22332f" stroke="#22332f"></path><path d="M848 123L772 0L759 67Z" fill="#2e3937" stroke="#2e3937"></path><path d="M833 482L896 380L768 321Z" fill="#22332f" stroke="#22332f"></path><path d="M0 183L119 240L123 183Z" fill="#152c28" stroke="#152c28"></path><path d="M77 423L0 466L110 540Z" fill="#062621" stroke="#062621"></path><path d="M0 292L0 343L101 342Z" fill="#22332f" stroke="#22332f"></path><path d="M229 0L111 0L155 60Z" fill="#343c3a" stroke="#343c3a"></path><path d="M0 72L0 183L123 183Z" fill="#22332f" stroke="#22332f"></path><path d="M0 72L123 183L116 58Z" fill="#283633" stroke="#283633"></path><path d="M0 343L0 466L77 423Z" fill="#0e2924" stroke="#0e2924"></path><path d="M795 540L885 540L833 482Z" fill="#22332f" stroke="#22332f"></path><path d="M833 482L960 435L896 380Z" fill="#2e3937" stroke="#2e3937"></path><path d="M960 435L960 348L896 380Z" fill="#152c28" stroke="#152c28"></path><path d="M896 380L960 348L876 249Z" fill="#343c3a" stroke="#343c3a"></path><path d="M876 249L960 211L847 200Z" fill="#062621" stroke="#062621"></path><path d="M960 348L960 256L876 249Z" fill="#2e3937" stroke="#2e3937"></path><path d="M848 123L903 0L772 0Z" fill="#152c28" stroke="#152c28"></path><path d="M0 466L0 540L110 540Z" fill="#2e3937" stroke="#2e3937"></path><path d="M0 0L0 72L116 58Z" fill="#283633" stroke="#283633"></path><path d="M960 256L960 211L876 249Z" fill="#152c28" stroke="#152c28"></path><path d="M885 540L960 435L833 482Z" fill="#0e2924" stroke="#0e2924"></path><path d="M960 211L960 112L848 123Z" fill="#404342" stroke="#404342"></path><path d="M960 112L903 0L848 123Z" fill="#1c302c" stroke="#1c302c"></path><path d="M111 0L0 0L116 58Z" fill="#1c302c" stroke="#1c302c"></path><path d="M885 540L960 540L960 435Z" fill="#404342" stroke="#404342"></path><path d="M960 112L960 0L903 0Z" fill="#062621" stroke="#062621"></path></g></svg>