<svg id="visual" viewBox="0 0 900 600" width="900" height="600" xmlns="http://www.w3.org/2000/svg" xmlns:xlink="http://www.w3.org/1999/xlink" version="1.1"><g stroke-width="1" stroke-linejoin="bevel"><path d="M400 312L398 395L472 370Z" fill="#69989b" stroke="#69989b"></path><path d="M472 370L497 337L400 312Z" fill="#598288" stroke="#598288"></path><path d="M398 395L415 462L472 370Z" fill="#598288" stroke="#598288"></path><path d="M472 370L612 437L497 337Z" fill="#081117" stroke="#081117"></path><path d="M400 312L335 418L398 395Z" fill="#69989b" stroke="#69989b"></path><path d="M398 395L335 418L415 462Z" fill="#24333b" stroke="#24333b"></path><path d="M497 337L479 228L400 312Z" fill="#081117" stroke="#081117"></path><path d="M390 194L284 289L400 312Z" fill="#8bc4c0" stroke="#8bc4c0"></path><path d="M400 312L284 289L335 418Z" fill="#598288" stroke="#598288"></path><path d="M479 228L390 194L400 312Z" fill="#3d5962" stroke="#3d5962"></path><path d="M230 538L335 512L335 418Z" fill="#9edbd2" stroke="#9edbd2"></path><path d="M335 418L335 512L415 462Z" fill="#9edbd2" stroke="#9edbd2"></path><path d="M462 600L523 515L415 462Z" fill="#598288" stroke="#598288"></path><path d="M415 462L523 515L472 370Z" fill="#79aeae" stroke="#79aeae"></path><path d="M523 515L612 437L472 370Z" fill="#8bc4c0" stroke="#8bc4c0"></path><path d="M497 337L638 302L479 228Z" fill="#24333b" stroke="#24333b"></path><path d="M612 437L638 302L497 337Z" fill="#598288" stroke="#598288"></path><path d="M617 160L473 139L479 228Z" fill="#8bc4c0" stroke="#8bc4c0"></path><path d="M479 228L473 139L390 194Z" fill="#598288" stroke="#598288"></path><path d="M438 76L316 161L390 194Z" fill="#3d5962" stroke="#3d5962"></path><path d="M390 194L316 161L284 289Z" fill="#24333b" stroke="#24333b"></path><path d="M523 515L629 471L612 437Z" fill="#69989b" stroke="#69989b"></path><path d="M612 437L676 436L638 302Z" fill="#598288" stroke="#598288"></path><path d="M190 274L191 407L284 289Z" fill="#598288" stroke="#598288"></path><path d="M284 289L191 407L335 418Z" fill="#3d5962" stroke="#3d5962"></path><path d="M363 600L462 600L415 462Z" fill="#081117" stroke="#081117"></path><path d="M523 515L589 600L629 471Z" fill="#081117" stroke="#081117"></path><path d="M173 221L190 274L284 289Z" fill="#081117" stroke="#081117"></path><path d="M277 600L363 600L335 512Z" fill="#081117" stroke="#081117"></path><path d="M335 512L363 600L415 462Z" fill="#79aeae" stroke="#79aeae"></path><path d="M696 476L676 436L629 471Z" fill="#4b6d75" stroke="#4b6d75"></path><path d="M629 471L676 436L612 437Z" fill="#081117" stroke="#081117"></path><path d="M191 407L230 538L335 418Z" fill="#30464e" stroke="#30464e"></path><path d="M695 238L617 160L638 302Z" fill="#24333b" stroke="#24333b"></path><path d="M638 302L617 160L479 228Z" fill="#69989b" stroke="#69989b"></path><path d="M535 0L438 76L473 139Z" fill="#172229" stroke="#172229"></path><path d="M473 139L438 76L390 194Z" fill="#172229" stroke="#172229"></path><path d="M316 161L173 221L284 289Z" fill="#8bc4c0" stroke="#8bc4c0"></path><path d="M190 274L125 371L191 407Z" fill="#8bc4c0" stroke="#8bc4c0"></path><path d="M203 88L173 221L316 161Z" fill="#172229" stroke="#172229"></path><path d="M230 538L277 600L335 512Z" fill="#081117" stroke="#081117"></path><path d="M727 275L695 238L638 302Z" fill="#3d5962" stroke="#3d5962"></path><path d="M462 600L589 600L523 515Z" fill="#3d5962" stroke="#3d5962"></path><path d="M589 600L696 476L629 471Z" fill="#9edbd2" stroke="#9edbd2"></path><path d="M676 436L727 275L638 302Z" fill="#081117" stroke="#081117"></path><path d="M101 293L125 371L190 274Z" fill="#081117" stroke="#081117"></path><path d="M191 407L85 524L230 538Z" fill="#172229" stroke="#172229"></path><path d="M838 416L727 275L676 436Z" fill="#69989b" stroke="#69989b"></path><path d="M438 76L266 79L316 161Z" fill="#79aeae" stroke="#79aeae"></path><path d="M128 93L123 237L173 221Z" fill="#24333b" stroke="#24333b"></path><path d="M173 221L123 237L190 274Z" fill="#69989b" stroke="#69989b"></path><path d="M598 0L595 74L689 0Z" fill="#79aeae" stroke="#79aeae"></path><path d="M705 68L595 74L617 160Z" fill="#79aeae" stroke="#79aeae"></path><path d="M617 160L595 74L473 139Z" fill="#9edbd2" stroke="#9edbd2"></path><path d="M123 237L101 293L190 274Z" fill="#3d5962" stroke="#3d5962"></path><path d="M85 524L201 600L230 538Z" fill="#69989b" stroke="#69989b"></path><path d="M230 538L201 600L277 600Z" fill="#172229" stroke="#172229"></path><path d="M266 79L203 88L316 161Z" fill="#4b6d75" stroke="#4b6d75"></path><path d="M535 0L382 0L438 76Z" fill="#79aeae" stroke="#79aeae"></path><path d="M438 76L382 0L266 79Z" fill="#598288" stroke="#598288"></path><path d="M266 79L188 0L203 88Z" fill="#8bc4c0" stroke="#8bc4c0"></path><path d="M595 74L535 0L473 139Z" fill="#24333b" stroke="#24333b"></path><path d="M382 0L314 0L266 79Z" fill="#3d5962" stroke="#3d5962"></path><path d="M0 460L85 524L125 371Z" fill="#081117" stroke="#081117"></path><path d="M125 371L85 524L191 407Z" fill="#598288" stroke="#598288"></path><path d="M736 600L802 466L696 476Z" fill="#24333b" stroke="#24333b"></path><path d="M696 476L802 466L676 436Z" fill="#081117" stroke="#081117"></path><path d="M705 68L617 160L762 95Z" fill="#69989b" stroke="#69989b"></path><path d="M595 74L598 0L535 0Z" fill="#30464e" stroke="#30464e"></path><path d="M188 0L128 93L203 88Z" fill="#172229" stroke="#172229"></path><path d="M203 88L128 93L173 221Z" fill="#79aeae" stroke="#79aeae"></path><path d="M0 189L0 339L101 293Z" fill="#69989b" stroke="#69989b"></path><path d="M589 600L736 600L696 476Z" fill="#24333b" stroke="#24333b"></path><path d="M792 188L695 238L727 275Z" fill="#30464e" stroke="#30464e"></path><path d="M762 95L617 160L695 238Z" fill="#30464e" stroke="#30464e"></path><path d="M836 288L792 188L727 275Z" fill="#30464e" stroke="#30464e"></path><path d="M838 416L836 288L727 275Z" fill="#081117" stroke="#081117"></path><path d="M802 466L838 416L676 436Z" fill="#79aeae" stroke="#79aeae"></path><path d="M900 460L838 416L802 466Z" fill="#172229" stroke="#172229"></path><path d="M900 89L762 95L792 188Z" fill="#79aeae" stroke="#79aeae"></path><path d="M792 188L762 95L695 238Z" fill="#4b6d75" stroke="#4b6d75"></path><path d="M705 68L689 0L595 74Z" fill="#30464e" stroke="#30464e"></path><path d="M0 600L79 600L85 524Z" fill="#79aeae" stroke="#79aeae"></path><path d="M85 524L79 600L201 600Z" fill="#598288" stroke="#598288"></path><path d="M0 189L101 293L123 237Z" fill="#69989b" stroke="#69989b"></path><path d="M101 293L0 339L125 371Z" fill="#8bc4c0" stroke="#8bc4c0"></path><path d="M314 0L188 0L266 79Z" fill="#8bc4c0" stroke="#8bc4c0"></path><path d="M0 339L0 399L125 371Z" fill="#081117" stroke="#081117"></path><path d="M0 399L0 460L125 371Z" fill="#8bc4c0" stroke="#8bc4c0"></path><path d="M809 0L689 0L705 68Z" fill="#3d5962" stroke="#3d5962"></path><path d="M128 93L0 189L123 237Z" fill="#4b6d75" stroke="#4b6d75"></path><path d="M0 111L0 189L128 93Z" fill="#30464e" stroke="#30464e"></path><path d="M736 600L828 600L802 466Z" fill="#79aeae" stroke="#79aeae"></path><path d="M838 416L900 370L836 288Z" fill="#8bc4c0" stroke="#8bc4c0"></path><path d="M836 288L900 160L792 188Z" fill="#172229" stroke="#172229"></path><path d="M900 460L900 370L838 416Z" fill="#24333b" stroke="#24333b"></path><path d="M900 370L900 329L836 288Z" fill="#30464e" stroke="#30464e"></path><path d="M188 0L102 0L128 93Z" fill="#69989b" stroke="#69989b"></path><path d="M828 600L900 460L802 466Z" fill="#9edbd2" stroke="#9edbd2"></path><path d="M102 0L0 111L128 93Z" fill="#79aeae" stroke="#79aeae"></path><path d="M0 460L0 600L85 524Z" fill="#30464e" stroke="#30464e"></path><path d="M900 329L900 160L836 288Z" fill="#79aeae" stroke="#79aeae"></path><path d="M762 95L809 0L705 68Z" fill="#69989b" stroke="#69989b"></path><path d="M900 89L809 0L762 95Z" fill="#9edbd2" stroke="#9edbd2"></path><path d="M828 600L900 600L900 460Z" fill="#172229" stroke="#172229"></path><path d="M900 160L900 89L792 188Z" fill="#081117" stroke="#081117"></path><path d="M102 0L0 0L0 111Z" fill="#4b6d75" stroke="#4b6d75"></path><path d="M900 89L900 0L809 0Z" fill="#24333b" stroke="#24333b"></path></g></svg>